<?xml version="1.0" standalone="no"?>
<!DOCTYPE svg PUBLIC "-//W3C//DTD SVG 20010904//EN"
 "http://www.w3.org/TR/2001/REC-SVG-20010904/DTD/svg10.dtd">
<svg version="1.0" xmlns="http://www.w3.org/2000/svg"
 width="1000.000000pt" height="1000.000000pt" viewBox="0 0 1000.000000 1000.000000"
 preserveAspectRatio="xMidYMid meet">

<g transform="translate(0.000000,1000.000000) scale(0.100000,-0.100000)"
fill="#000000" stroke="none">
<path d="M3130 6334 c-505 -45 -943 -154 -1338 -331 -273 -123 -472 -256 -794
-529 -299 -254 -648 -859 -937 -1622 l-61 -161 1 -243 0 -243 68 195 c240 686
458 1168 699 1540 149 230 232 325 423 485 321 268 596 423 986 555 417 140
759 195 1223 195 463 0 806 -55 1222 -195 254 -86 409 -158 683 -321 153 -91
207 -129 335 -239 264 -226 445 -415 551 -573 l61 -91 381 -154 c452 -182 488
-195 722 -263 517 -149 1271 -426 1335 -490 37 -37 70 -126 70 -187 0 -63 -34
-163 -74 -215 -58 -77 -239 -144 -567 -212 -94 -19 -175 -38 -181 -41 -5 -3
-273 -39 -596 -79 -323 -41 -654 -85 -737 -99 -82 -14 -292 -44 -465 -66 -465
-60 -872 -116 -1070 -146 l-174 -27 -80 -84 c-202 -213 -505 -420 -791 -538
-338 -141 -693 -215 -1025 -215 -114 0 -118 -1 -123 -23 -3 -12 -85 -436 -182
-942 -96 -506 -178 -932 -181 -947 l-6 -28 80 0 c74 0 80 2 85 22 3 13 76 390
162 838 85 448 160 838 165 866 l11 51 122 7 c445 24 956 182 1311 404 150 95
313 221 434 337 l108 104 205 30 c196 29 701 97 1049 141 91 11 262 36 380 55
118 19 467 66 776 104 309 39 574 75 590 81 16 7 93 24 171 40 423 86 586 157
674 292 154 239 98 546 -122 658 -188 96 -979 373 -1409 494 -69 20 -307 109
-534 200 l-408 165 -53 78 c-162 236 -642 680 -873 808 -42 23 -128 72 -189
107 -361 209 -880 372 -1383 433 -129 16 -621 28 -730 19z"/>
<path d="M3054 5410 c-303 -45 -499 -332 -429 -629 43 -181 187 -329 366 -376
68 -19 199 -19 265 -1 252 67 419 324 376 578 -46 274 -309 469 -578 428z
m305 -104 c27 -14 51 -53 51 -82 0 -28 -28 -70 -55 -82 -42 -19 -74 -14 -106
17 -78 78 11 198 110 147z"/>
</g>
</svg>
